# Blender v2.90.1 OBJ File: ''
# www.blender.org
mtllib cow.mtl
o Cube_Cube.002
v -1.811034 -1.000000 1.000000
v -1.811034 1.000000 1.000000
v -1.811034 -1.000000 -1.000000
v -1.811034 1.000000 -1.000000
v 1.811034 -1.000000 1.000000
v 1.811034 1.000000 1.000000
v 1.811034 -1.000000 -1.000000
v 1.811034 1.000000 -1.000000
v 1.811034 -0.084134 0.422338
v 1.811034 0.760543 0.422338
v 1.811034 -0.084134 -0.422338
v 1.811034 0.760543 -0.422338
v 2.799632 0.550650 0.422339
v 2.799632 1.395327 0.422339
v 2.799632 0.550650 -0.422338
v 2.799632 1.395327 -0.422338
v 2.851664 0.299108 0.673881
v 2.851664 1.646869 0.673881
v 2.851664 0.299108 -0.673881
v 2.851664 1.646869 -0.673881
v 3.684167 0.609880 0.363108
v 3.684167 1.336096 0.363108
v 3.684167 0.609880 -0.363108
v 3.684167 1.336096 -0.363108
v 1.428422 -1.000000 -1.000000
v 1.428422 1.000000 -1.000000
v 1.428422 -1.000000 1.000000
v 1.428422 1.000000 1.000000
v -1.527127 -1.000000 -1.000000
v -1.527127 1.000000 1.000000
v -1.527127 1.000000 -1.000000
v -1.527127 -1.000000 1.000000
v -1.811034 -1.000000 -0.653285
v -1.811034 1.000000 -0.653285
v 1.811034 -1.000000 -0.653285
v 1.811034 1.000000 -0.653285
v 1.811034 -0.084134 -0.275907
v 1.811034 0.760543 -0.275907
v 2.799632 0.550650 -0.275907
v 2.799632 1.395327 -0.275907
v 2.851664 0.299108 -0.440236
v 2.851664 1.646869 -0.440236
v 3.684167 0.609880 -0.237213
v 3.684167 1.336096 -0.237213
v 1.428422 1.000000 -0.653285
v 1.428422 -1.000000 -0.653285
v -1.527127 -1.000000 -0.653285
v -1.527127 1.000000 -0.653285
v -1.811034 -1.000000 0.668615
v 1.811034 1.000000 0.668615
v 1.811034 0.760543 0.282382
v 2.799632 1.395327 0.282382
v 2.851664 1.646869 0.450567
v 3.684167 1.336096 0.242779
v 1.428422 1.000000 0.668615
v 1.428422 -1.000000 0.668615
v -1.527127 -1.000000 0.668615
v -1.527127 1.000000 0.668615
v -1.811034 1.000000 0.668615
v 1.811034 -1.000000 0.668615
v 1.811034 -0.084134 0.282382
v 2.799632 0.550650 0.282382
v 2.851664 0.299108 0.450567
v 3.684167 0.609880 0.242779
v -1.811034 -2.407778 0.668615
v -1.811034 -2.407778 1.000000
v -1.527127 -2.407778 -1.000000
v -1.811034 -2.407778 -1.000000
v 1.811034 -2.407778 -0.653285
v 1.811034 -2.407778 -1.000000
v 1.428422 -2.407778 1.000000
v 1.811034 -2.407778 1.000000
v 1.428422 -2.407778 -1.000000
v 1.428422 -2.407778 0.668615
v -1.527127 -2.407778 1.000000
v -1.527127 -2.407778 0.668615
v -1.811034 -2.407778 -0.653285
v 1.428422 -2.407778 -0.653285
v -1.527127 -2.407778 -0.653285
v 1.811034 -2.407778 0.668615
vt 0.625000 0.206661
vt 0.375000 0.250000
vt 0.375000 0.206661
vt 0.625000 0.473592
vt 0.375000 0.500000
vt 0.375000 0.473592
vt 0.625000 0.708577
vt 0.625000 0.750000
vt 0.625000 0.708577
vt 0.625000 0.980404
vt 0.375000 1.000000
vt 0.375000 0.980404
vt 0.375000 0.543339
vt 0.375000 0.500000
vt 0.875000 0.708577
vt 0.855404 0.750000
vt 0.855404 0.708577
vt 0.375000 0.750000
vt 0.625000 0.750000
vt 0.625000 0.500000
vt 0.375000 0.500000
vt 0.625000 0.750000
vt 0.375000 0.750000
vt 0.375000 0.543339
vt 0.375000 0.500000
vt 0.375000 0.543339
vt 0.375000 0.543339
vt 0.625000 0.708577
vt 0.625000 0.500000
vt 0.625000 0.708577
vt 0.625000 0.750000
vt 0.625000 0.708577
vt 0.625000 0.500000
vt 0.375000 0.500000
vt 0.625000 0.750000
vt 0.375000 0.750000
vt 0.375000 0.708577
vt 0.625000 0.500000
vt 0.375000 0.500000
vt 0.375000 0.750000
vt 0.375000 0.543339
vt 0.651408 0.708577
vt 0.348592 0.708577
vt 0.144596 0.750000
vt 0.144596 0.708577
vt 0.375000 0.776408
vt 0.375000 0.750000
vt 0.625000 0.269596
vt 0.375000 0.269596
vt 0.625000 0.250000
vt 0.375000 0.473592
vt 0.651408 0.750000
vt 0.625000 0.776408
vt 0.855404 0.500000
vt 0.651408 0.543339
vt 0.651408 0.500000
vt 0.375000 0.708577
vt 0.375000 0.708577
vt 0.348592 0.500000
vt 0.144596 0.543339
vt 0.144596 0.500000
vt 0.625000 0.543339
vt 0.375000 0.708577
vt 0.625000 0.500000
vt 0.625000 0.543339
vt 0.625000 0.543339
vt 0.375000 0.708577
vt 0.375000 0.708577
vt 0.875000 0.500000
vt 0.855404 0.543339
vt 0.348592 0.543339
vt 0.348592 0.543339
vt 0.625000 0.041423
vt 0.375000 0.041423
vt 0.625000 0.000000
vt 0.375000 0.000000
vt 0.125000 0.708577
vt 0.125000 0.543339
vt 0.625000 0.543339
vt 0.625000 0.543339
vt 0.875000 0.543339
vt 0.348592 0.750000
vt 0.348592 0.708577
vt 0.144596 0.708577
vt 0.125000 0.750000
vt 0.125000 0.708577
vt 0.144596 0.500000
vt 0.125000 0.543339
vt 0.125000 0.500000
vt 0.348592 0.500000
vt 0.375000 0.000000
vt 0.375000 0.543339
vt 0.375000 0.206661
vt 0.375000 0.750000
vt 0.144596 0.543339
vt 0.375000 0.980404
vt 0.375000 0.250000
vt 0.348592 0.750000
vt 0.625000 1.000000
vt 0.875000 0.750000
vt 0.144596 0.750000
vt 0.375000 0.041423
vt 0.375000 0.776408
vt 0.375000 1.000000
vt 0.375000 0.269596
vn -1.0000 0.0000 0.0000
vn 0.0000 0.0000 -1.0000
vn 1.0000 0.0000 0.0000
vn 0.0000 0.0000 1.0000
vn 0.0000 1.0000 0.0000
vn -0.9793 -0.2026 0.0000
vn 0.5403 -0.8415 0.0000
vn -0.5403 0.8415 0.0000
vn 0.3497 0.9369 0.0000
vn -0.9793 0.2026 0.0000
vn -0.9793 0.0000 -0.2026
vn -0.9793 0.0000 0.2026
vn 0.3497 0.0000 -0.9369
vn 0.3497 0.0000 0.9369
vn 0.3497 -0.9369 0.0000
vn 0.0000 -1.0000 0.0000
usemtl None
s off
f 34/1/1 3/2/1 33/3/1
f 26/4/2 7/5/2 25/6/2
f 50/7/3 10/8/3 51/9/3
f 30/10/4 1/11/4 32/12/4
f 35/13/3 70/14/3 7/5/3
f 59/15/5 30/16/5 58/17/5
f 10/8/4 13/18/4 14/19/4
f 8/20/3 11/21/3 7/5/3
f 6/22/3 9/23/3 10/8/3
f 35/13/3 11/21/3 37/24/3
f 15/25/6 41/26/6 39/27/6
f 11/21/7 39/27/7 37/24/7
f 10/8/8 52/28/8 51/9/8
f 12/29/2 15/25/2 11/21/2
f 53/30/9 22/31/9 54/32/9
f 14/19/10 53/30/10 52/28/10
f 16/33/11 19/34/11 15/25/11
f 13/18/12 18/35/12 14/19/12
f 54/32/3 21/36/3 64/37/3
f 20/38/13 23/39/13 19/34/13
f 17/40/14 22/31/14 18/35/14
f 41/26/15 23/39/15 43/41/15
f 55/42/5 6/22/5 50/7/5
f 56/43/16 32/44/16 57/45/16
f 6/22/4 27/46/4 5/47/4
f 31/48/2 25/6/2 29/49/2
f 4/50/2 29/49/2 3/2/2
f 7/5/2 73/51/2 25/6/2
f 58/17/5 28/52/5 55/42/5
f 28/53/4 32/12/4 27/46/4
f 31/54/5 45/55/5 26/56/5
f 5/47/3 80/57/3 60/58/3
f 25/59/16 47/60/16 29/61/16
f 26/56/5 36/62/5 8/20/5
f 41/26/15 64/37/15 63/63/15
f 24/64/3 43/41/3 23/39/3
f 16/33/10 42/65/10 20/38/10
f 42/65/9 24/64/9 20/38/9
f 38/66/8 16/33/8 12/29/8
f 37/24/7 62/67/7 61/68/7
f 62/67/6 41/26/6 63/63/6
f 35/13/3 61/68/3 60/58/3
f 4/69/5 48/70/5 31/54/5
f 25/59/1 78/71/1 46/72/1
f 36/62/3 12/29/3 8/20/3
f 59/73/1 33/3/1 49/74/1
f 2/75/1 49/74/1 1/76/1
f 60/58/3 9/23/3 5/47/3
f 13/18/6 63/63/6 17/40/6
f 61/68/7 13/18/7 9/23/7
f 63/63/15 21/36/15 17/40/15
f 48/70/5 55/42/5 45/55/5
f 47/60/16 49/77/16 33/78/16
f 46/72/16 57/45/16 47/60/16
f 45/55/5 50/7/5 36/62/5
f 44/79/3 64/37/3 43/41/3
f 52/28/10 42/65/10 40/80/10
f 42/65/9 54/32/9 44/79/9
f 51/9/8 40/80/8 38/66/8
f 34/81/5 58/17/5 48/70/5
f 35/13/16 56/43/16 46/72/16
f 36/62/3 51/9/3 38/66/3
f 80/57/16 71/82/16 74/83/16
f 76/84/16 66/85/16 65/86/16
f 67/87/16 77/88/16 68/89/16
f 70/14/16 78/71/16 73/90/16
f 47/60/3 67/87/3 29/61/3
f 49/74/1 66/91/1 1/76/1
f 46/72/4 69/92/4 35/13/4
f 3/2/1 77/93/1 33/3/1
f 27/46/4 72/94/4 5/47/4
f 57/45/2 65/86/2 49/77/2
f 33/78/4 79/95/4 47/60/4
f 1/11/4 75/96/4 32/12/4
f 60/58/2 74/83/2 56/43/2
f 29/49/2 68/97/2 3/2/2
f 56/43/1 71/82/1 27/98/1
f 32/44/3 76/84/3 57/45/3
f 34/1/1 4/50/1 3/2/1
f 26/4/2 8/20/2 7/5/2
f 50/7/3 6/22/3 10/8/3
f 30/10/4 2/99/4 1/11/4
f 35/13/3 69/92/3 70/14/3
f 59/15/5 2/100/5 30/16/5
f 10/8/4 9/23/4 13/18/4
f 8/20/3 12/29/3 11/21/3
f 6/22/3 5/47/3 9/23/3
f 35/13/3 7/5/3 11/21/3
f 15/25/6 19/34/6 41/26/6
f 11/21/7 15/25/7 39/27/7
f 10/8/8 14/19/8 52/28/8
f 12/29/2 16/33/2 15/25/2
f 53/30/9 18/35/9 22/31/9
f 14/19/10 18/35/10 53/30/10
f 16/33/11 20/38/11 19/34/11
f 13/18/12 17/40/12 18/35/12
f 54/32/3 22/31/3 21/36/3
f 20/38/13 24/64/13 23/39/13
f 17/40/14 21/36/14 22/31/14
f 41/26/15 19/34/15 23/39/15
f 55/42/5 28/52/5 6/22/5
f 56/43/16 27/98/16 32/44/16
f 6/22/4 28/53/4 27/46/4
f 31/48/2 26/4/2 25/6/2
f 4/50/2 31/48/2 29/49/2
f 7/5/2 70/14/2 73/51/2
f 58/17/5 30/16/5 28/52/5
f 28/53/4 30/10/4 32/12/4
f 31/54/5 48/70/5 45/55/5
f 5/47/3 72/94/3 80/57/3
f 25/59/16 46/72/16 47/60/16
f 26/56/5 45/55/5 36/62/5
f 41/26/15 43/41/15 64/37/15
f 24/64/3 44/79/3 43/41/3
f 16/33/10 40/80/10 42/65/10
f 42/65/9 44/79/9 24/64/9
f 38/66/8 40/80/8 16/33/8
f 37/24/7 39/27/7 62/67/7
f 62/67/6 39/27/6 41/26/6
f 35/13/3 37/24/3 61/68/3
f 4/69/5 34/81/5 48/70/5
f 25/59/1 73/90/1 78/71/1
f 36/62/3 38/66/3 12/29/3
f 59/73/1 34/1/1 33/3/1
f 2/75/1 59/73/1 49/74/1
f 60/58/3 61/68/3 9/23/3
f 13/18/6 62/67/6 63/63/6
f 61/68/7 62/67/7 13/18/7
f 63/63/15 64/37/15 21/36/15
f 48/70/5 58/17/5 55/42/5
f 47/60/16 57/45/16 49/77/16
f 46/72/16 56/43/16 57/45/16
f 45/55/5 55/42/5 50/7/5
f 44/79/3 54/32/3 64/37/3
f 52/28/10 53/30/10 42/65/10
f 42/65/9 53/30/9 54/32/9
f 51/9/8 52/28/8 40/80/8
f 34/81/5 59/15/5 58/17/5
f 35/13/16 60/58/16 56/43/16
f 36/62/3 50/7/3 51/9/3
f 80/57/16 72/94/16 71/82/16
f 76/84/16 75/101/16 66/85/16
f 67/87/16 79/95/16 77/88/16
f 70/14/16 69/92/16 78/71/16
f 47/60/3 79/95/3 67/87/3
f 49/74/1 65/102/1 66/91/1
f 46/72/4 78/71/4 69/92/4
f 3/2/1 68/97/1 77/93/1
f 27/46/4 71/103/4 72/94/4
f 57/45/2 76/84/2 65/86/2
f 33/78/4 77/88/4 79/95/4
f 1/11/4 66/104/4 75/96/4
f 60/58/2 80/57/2 74/83/2
f 29/49/2 67/105/2 68/97/2
f 56/43/1 74/83/1 71/82/1
f 32/44/3 75/101/3 76/84/3
